<svg width="36" height="56" viewBox="0 0 36 56" fill="none" xmlns="http://www.w3.org/2000/svg" xmlns:xlink="http://www.w3.org/1999/xlink">
<path d="M18,0C19.105,0 20,0.895 20,2L20,49.172L32.586,36.586C33.367,35.805 34.633,35.805 35.414,36.586C36.195,37.367 36.195,38.633 35.414,39.414L19.414,55.414C18.633,56.195 17.367,56.195 16.586,55.414L0.586,39.414C-0.195,38.633 -0.195,37.367 0.586,36.586C1.367,35.805 2.633,35.805 3.414,36.586L16,49.172L16,2C16,0.895 16.895,0 18,0Z" clip-rule="evenodd" fill-rule="evenodd" transform="rotate(-180 18 28)" fill="#000000"/>
</svg>
