<svg width="28" height="28" viewBox="0 0 28 28" fill="none" xmlns="http://www.w3.org/2000/svg" xmlns:xlink="http://www.w3.org/1999/xlink">
<path d="M14,0.286C14.947,0.286 15.714,1.053 15.714,2L15.714,12.286L26,12.286C26.947,12.286 27.714,13.053 27.714,14C27.714,14.947 26.947,15.714 26,15.714L15.714,15.714L15.714,26C15.714,26.947 14.947,27.714 14,27.714C13.053,27.714 12.286,26.947 12.286,26L12.286,15.714L2,15.714C1.053,15.714 0.286,14.947 0.286,14C0.286,13.053 1.053,12.286 2,12.286L12.286,12.286L12.286,2C12.286,1.053 13.053,0.286 14,0.286Z" fill="#000000"/>
</svg>
