<svg width="20" height="20" viewBox="0 0 20 20" fill="none" xmlns="http://www.w3.org/2000/svg" xmlns:xlink="http://www.w3.org/1999/xlink">
<path d="M9.363,0.415C9.623,-0.138 10.377,-0.138 10.637,0.415L13.177,5.806C13.28,6.026 13.481,6.178 13.712,6.213L19.391,7.078C19.974,7.166 20.206,7.917 19.785,8.348L15.676,12.544C15.508,12.715 15.432,12.961 15.471,13.203L16.441,19.128C16.541,19.736 15.931,20.2 15.41,19.913L10.331,17.115C10.124,17.001 9.876,17.001 9.669,17.115L4.59,19.913C4.069,20.2 3.459,19.736 3.559,19.128L4.529,13.203C4.568,12.961 4.492,12.715 4.324,12.544L0.215,8.348C-0.206,7.917 0.026,7.166 0.609,7.078L6.288,6.213C6.519,6.178 6.72,6.026 6.823,5.806L9.363,0.415Z" fill="#EF6225"/>
</svg>
