<svg width="32" height="32" viewBox="0 0 32 32" fill="none" xmlns="http://www.w3.org/2000/svg" xmlns:xlink="http://www.w3.org/1999/xlink">
<path d="M23.484,20.688C25.066,18.535 26,15.876 26,13C26,5.82 20.18,0 13,0C5.82,0 0,5.82 0,13C0,20.18 5.82,26 13,26C15.877,26 18.536,25.065 20.69,23.483L20.688,23.484C20.747,23.564 20.812,23.641 20.885,23.713L28.586,31.414C29.367,32.195 30.633,32.195 31.414,31.414C32.195,30.633 32.195,29.367 31.414,28.586L23.713,20.885C23.641,20.812 23.564,20.747 23.484,20.688ZM24,13C24,19.075 19.075,24 13,24C6.925,24 2,19.075 2,13C2,6.925 6.925,2 13,2C19.075,2 24,6.925 24,13Z" fill="#000000"/>
</svg>
