<svg width="60" height="56" viewBox="0 0 60 56" fill="none" xmlns="http://www.w3.org/2000/svg" xmlns:xlink="http://www.w3.org/1999/xlink">
<path d="M32.828,2C31.266,0.438 28.734,0.438 27.172,2L0.586,28.586C-0.195,29.367 -0.195,30.633 0.586,31.414C1.367,32.195 2.633,32.195 3.414,31.414L30,4.829L56.586,31.414C57.367,32.195 58.633,32.195 59.414,31.414C60.195,30.633 60.195,29.367 59.414,28.586L50,19.172L50,6C50,4.896 49.105,4 48,4L44,4C42.895,4 42,4.896 42,6L42,11.172L32.828,2Z" fill="#5C6AEF"/>
<path d="M30,9.172L54,33.172L54,50C54,53.314 51.314,56 48,56L12,56C8.686,56 6,53.314 6,50L6,33.172L30,9.172Z" fill="#5C6AEF"/>
</svg>
