<svg width="64" height="64" viewBox="0 0 64 64" fill="none" xmlns="http://www.w3.org/2000/svg" xmlns:xlink="http://www.w3.org/1999/xlink">
<path d="M46.969,41.376C50.132,37.069 52,31.753 52,26C52,11.641 40.359,0 26,0C11.641,0 0,11.641 0,26C0,40.359 11.641,52 26,52C31.754,52 37.072,50.131 41.379,46.966L41.376,46.969C41.494,47.129 41.625,47.282 41.77,47.427L57.172,62.828C58.734,64.391 61.266,64.391 62.828,62.828C64.391,61.266 64.391,58.734 62.828,57.172L47.427,41.77C47.282,41.625 47.129,41.494 46.969,41.376ZM48,26C48,38.15 38.15,48 26,48C13.85,48 4,38.15 4,26C4,13.85 13.85,4 26,4C38.15,4 48,13.85 48,26Z" fill="#5C6AEF"/>
</svg>
