<svg width="74" height="70" viewBox="0 0 74 70" fill="none" xmlns="http://www.w3.org/2000/svg" xmlns:xlink="http://www.w3.org/1999/xlink">
<path d="M27.039,0.532C28.112,1.176 28.461,2.569 27.816,3.643L16.272,22.884L58.146,22.884L46.602,3.643C45.958,2.569 46.306,1.176 47.38,0.532C48.454,-0.112 49.847,0.236 50.491,1.31L63.435,22.884L71.221,22.884C72.473,22.884 73.488,23.899 73.488,25.151L73.488,29.686C73.488,30.938 72.473,31.953 71.221,31.953L3.198,31.953C1.945,31.953 0.93,30.938 0.93,29.686L0.93,25.151C0.93,23.899 1.945,22.884 3.198,22.884L10.984,22.884L23.928,1.31C24.572,0.236 25.965,-0.112 27.039,0.532Z" fill="#5C6AEF"/>
<path d="M12.121,65.63L5.205,36.488L69.214,36.488L62.297,65.63C61.928,67.157 60.562,68.232 58.991,68.232L15.427,68.232C13.857,68.232 12.49,67.157 12.121,65.63Z" fill="#5C6AEF"/>
</svg>
